<svg version="1.1" id="Layer_1" xmlns="http://www.w3.org/2000/svg" xmlns:xlink="http://www.w3.org/1999/xlink" x="0px" y="0px"
	 width="233px" height="49px" viewBox="4.33 4.75 233 49" enable-background="new 4.33 4.75 233 49" xml:space="preserve">
<g>
	<g>
		<path fill="#FF9900" d="M170.994,39.436c-4.564,3.141-11.178,4.815-16.871,4.815c-7.984,0-15.172-2.758-20.609-7.345
			c-0.428-0.361-0.043-0.854,0.469-0.572c5.869,3.189,13.125,5.107,20.619,5.107c5.056,0,10.615-0.978,15.729-3.004
			C171.104,38.131,171.748,38.91,170.994,39.436"/>
	</g>
	<g>
		<path fill="#FF9900" d="M173.172,36.393c-0.596-0.775-3.947-0.367-5.455-0.187c-0.457,0.058-0.527-0.349-0.113-0.642
			c2.67-1.906,7.054-1.355,7.563-0.717c0.513,0.645-0.133,5.104-2.642,7.232c-0.387,0.327-0.754,0.152-0.582-0.28
			C172.506,40.371,173.771,37.17,173.172,36.393"/>
	</g>
	<g>
		<path fill="#FFFDFD" d="M167.805,22.649v-1.915c0-0.29,0.213-0.484,0.469-0.484h8.326c0.26-0.006,0.476,0.201,0.48,0.46
			c0,0.009,0,0.017,0,0.024v1.641c-0.004,0.274-0.227,0.633-0.627,1.203l-4.314,6.342c1.604-0.04,3.297,0.205,4.75,1.049
			c0.326,0.19,0.416,0.471,0.441,0.745v2.043c0,0.278-0.301,0.604-0.613,0.437c-2.561-1.383-5.963-1.532-8.797,0.016
			c-0.287,0.161-0.59-0.162-0.59-0.439V31.83c0-0.313,0.004-0.846,0.305-1.318l5-7.381h-4.35c-0.258,0.008-0.473-0.194-0.48-0.452
			c-0.002-0.009-0.002-0.019-0.002-0.027"/>
	</g>
	<g>
		<path fill="#FFFDFD" d="M139.129,34.251h-2.375c-0.229-0.019-0.408-0.199-0.424-0.426V20.982c0-0.257,0.203-0.461,0.457-0.461
			h2.215c0.23,0.01,0.414,0.197,0.432,0.43v1.678h0.043c0.578-1.621,1.664-2.379,3.129-2.379c1.484,0,2.414,0.758,3.082,2.381
			c0.576-1.623,1.881-2.381,3.281-2.381c0.996,0,2.086,0.434,2.75,1.404c0.752,1.08,0.598,2.65,0.598,4.026l-0.002,8.105
			c0.002,0.254-0.2,0.462-0.455,0.465c-0.002,0-0.002,0-0.004,0h-2.371c-0.241-0.02-0.43-0.223-0.428-0.465V26.98
			c0-0.543,0.047-1.894-0.067-2.406c-0.177-0.863-0.707-1.105-1.396-1.105c-0.574,0-1.177,0.404-1.421,1.052
			c-0.241,0.647-0.219,1.731-0.219,2.459v6.808c0.002,0.254-0.201,0.462-0.455,0.465c-0.002,0-0.002,0-0.004,0h-2.373
			c-0.242-0.019-0.429-0.222-0.426-0.465l-0.005-6.808c0-1.432,0.224-3.54-1.463-3.54c-1.707,0-1.641,2.056-1.641,3.54v6.808
			c0.002,0.254-0.201,0.462-0.455,0.465C139.131,34.252,139.131,34.252,139.129,34.251"/>
	</g>
	<g>
		<path fill="#FFFDFD" d="M185.666,24.043c0.375,1.008,0.426,2.277,0.426,3.342c0,1.617-0.104,4.27-2.318,4.27
			c-2.244,0-2.217-3.287-2.217-4.827c0-1.537,0.133-4.002,2.24-4.002L185.666,24.043z M177.33,27.223c0,3.9,2.273,7.028,6.447,7.028
			c4.01,0,6.553-3.05,6.553-6.894c0-3.979-2.301-7.107-6.553-7.107L177.33,27.223z"/>
	</g>
	<g>
		<path fill="#FFFDFD" d="M194.195,34.251h-2.424c-0.246-0.017-0.438-0.219-0.439-0.465L191.33,20.94
			c0.023-0.24,0.227-0.423,0.469-0.419h2.256c0.213,0.01,0.387,0.158,0.437,0.359v1.963h0.043c0.682-1.756,1.637-2.594,3.317-2.594
			c1.092,0,2.156,0.406,2.842,1.514c0.638,1.027,0.638,2.756,0.638,3.998v8.084c-0.033,0.233-0.233,0.406-0.47,0.405h-2.44
			c-0.223-0.016-0.401-0.186-0.433-0.405V26.87c0-1.404,0.158-3.461-1.522-3.461c-0.592,0-1.137,0.409-1.405,1.028
			c-0.345,0.786-0.39,1.565-0.39,2.433v6.915C194.666,34.045,194.453,34.252,194.195,34.251"/>
	</g>
	<g>
		<path fill="#FFFDFD" d="M163.445,34.104c-0.904-0.677-1.068-0.99-1.563-1.634c-1.489,1.371-2.551,1.781-4.481,1.781
			c-2.291,0-4.07-1.271-4.07-3.817c0-1.988,1.193-3.344,2.9-4.006c1.475-0.586,3.537-0.688,5.115-0.85V25.26
			c0-0.582,0.049-1.27-0.334-1.773c-0.33-0.451-0.966-0.638-1.527-0.638c-1.035,0-1.957,0.479-2.185,1.471
			c-0.047,0.22-0.227,0.438-0.475,0.448l-2.636-0.255c-0.223-0.044-0.471-0.206-0.405-0.513c0.604-2.881,3.495-3.75,6.082-3.75
			c1.323,0,3.053,0.317,4.098,1.221c1.324,1.113,1.197,2.598,1.197,4.214v3.817c0,1.146,0.526,1.649,1.024,2.271
			c0.172,0.222,0.211,0.485-0.012,0.651c-0.555,0.417-1.541,1.192-2.086,1.626l-0.002-0.007
			C163.902,34.184,163.652,34.206,163.445,34.104L163.445,34.104z M161.334,27.543c-1.965,0-4.037,0.378-4.037,2.466
			c0,1.058,0.609,1.775,1.652,1.775c0.76,0,1.447-0.425,1.877-1.113c0.535-0.848,0.508-1.646,0.508-2.598V27.543L161.334,27.543z"/>
	</g>
	<g>
		<path fill="#FFFDFD" d="M132.084,34.044c-0.186,0.14-0.434,0.162-0.643,0.06c-0.902-0.677-1.063-0.99-1.562-1.634
			c-1.489,1.371-2.547,1.781-4.481,1.781c-2.287,0-4.068-1.271-4.068-3.817c0-1.988,1.195-3.344,2.898-4.006
			c1.477-0.586,3.539-0.688,5.112-0.85V25.26c0-0.582,0.052-1.27-0.327-1.773c-0.332-0.451-0.97-0.638-1.525-0.638
			c-1.037,0-1.963,0.479-2.189,1.471c-0.045,0.22-0.225,0.438-0.469,0.448l-2.641-0.255c-0.222-0.044-0.467-0.206-0.404-0.513
			c0.607-2.881,3.496-3.75,6.08-3.75c1.324,0,3.053,0.317,4.096,1.221c1.324,1.113,1.197,2.598,1.197,4.214v3.817
			c0,1.146,0.529,1.649,1.025,2.271c0.176,0.222,0.215,0.485-0.009,0.651c-0.555,0.417-1.541,1.192-2.084,1.626L132.084,34.044
			L132.084,34.044z M129.342,27.541c-1.965,0-4.043,0.381-4.043,2.468c0,1.058,0.609,1.775,1.652,1.775
			c0.766,0,1.451-0.425,1.883-1.113c0.535-0.848,0.508-1.646,0.508-2.598V27.541z"/>
	</g>
</g>
<g>
	<g>
		<g enable-background="new    ">
			<path fill="#FFFDFD" d="M38.098,32.982c-0.42,0-0.63-0.209-0.63-0.629v-8.61c0-0.42,0.21-0.63,0.63-0.63h3.318
				c1.017,0,1.804,0.227,2.359,0.679c0.555,0.453,0.833,1.085,0.833,1.897c0,0.541-0.14,1.002-0.42,1.386
				c-0.28,0.383-0.667,0.663-1.162,0.84c0.569,0.149,1.015,0.425,1.337,0.826c0.322,0.401,0.483,0.909,0.483,1.526
				c0,0.877-0.285,1.549-0.854,2.016c-0.57,0.467-1.372,0.699-2.408,0.699H38.098z M38.587,27.523h2.66
				c1.484,0,2.226-0.58,2.226-1.736c0-1.166-0.742-1.75-2.226-1.75h-2.66V27.523z M38.587,32.061h2.884
				c1.493,0,2.24-0.604,2.24-1.808c0-1.203-0.747-1.806-2.24-1.806h-2.884V32.061z"/>
			<path fill="#FFFDFD" d="M53.721,33.109c-1.297,0-2.282-0.344-2.954-1.029s-1.008-1.688-1.008-3.003v-5.474
				c0-0.393,0.191-0.588,0.574-0.588c0.382,0,0.574,0.195,0.574,0.588v5.418c0,2.043,0.938,3.064,2.814,3.064
				c1.857,0,2.786-1.021,2.786-3.064v-5.418c0-0.393,0.196-0.588,0.588-0.588c0.374,0,0.56,0.195,0.56,0.588v5.474
				c0,1.315-0.334,2.317-1.001,3.003C55.987,32.768,55.009,33.109,53.721,33.109z"/>
			<path fill="#FFFDFD" d="M65.873,33.081c-0.383,0-0.574-0.205-0.574-0.615v-4.157l-3.262-4.48
				c-0.131-0.177-0.156-0.356-0.077-0.539c0.08-0.182,0.236-0.272,0.469-0.272c0.243,0,0.453,0.126,0.63,0.378l2.842,3.906
				l2.828-3.906c0.187-0.252,0.397-0.378,0.63-0.378c0.224,0,0.373,0.086,0.448,0.259c0.075,0.173,0.042,0.361-0.098,0.567
				l-3.262,4.493v4.131C66.447,32.876,66.256,33.081,65.873,33.081z"/>
			<path fill="#FFFDFD" d="M84.815,33.109c-0.915,0-1.71-0.209-2.387-0.623c-0.677-0.416-1.2-1.002-1.568-1.758
				c-0.369-0.756-0.553-1.651-0.553-2.688c0-1.035,0.182-1.932,0.546-2.688c0.364-0.756,0.884-1.339,1.561-1.75
				c0.677-0.411,1.477-0.616,2.401-0.616c0.934,0,1.738,0.205,2.415,0.616c0.677,0.411,1.199,0.991,1.568,1.743
				c0.368,0.752,0.553,1.646,0.553,2.682c0,1.035-0.187,1.935-0.56,2.695c-0.373,0.76-0.898,1.348-1.575,1.764
				C86.54,32.9,85.739,33.109,84.815,33.109z M84.815,32.087c1.055,0,1.872-0.354,2.45-1.063c0.578-0.709,0.868-1.703,0.868-2.981
				s-0.29-2.271-0.868-2.976c-0.578-0.705-1.396-1.057-2.45-1.057c-1.036,0-1.843,0.352-2.422,1.057
				c-0.579,0.705-0.868,1.697-0.868,2.976c0,1.271,0.29,2.263,0.868,2.976C82.971,31.732,83.779,32.087,84.815,32.087z"/>
			<path fill="#FFFDFD" d="M94.854,33.081c-0.364,0-0.546-0.19-0.546-0.573v-8.904c0-0.393,0.168-0.588,0.504-0.588
				c0.14,0,0.247,0.025,0.322,0.077c0.075,0.051,0.159,0.142,0.252,0.272l5.768,7.687v-7.477c0-0.373,0.182-0.56,0.546-0.56
				c0.345,0,0.518,0.187,0.518,0.56v8.946c0,0.373-0.154,0.56-0.462,0.56c-0.14,0-0.252-0.026-0.336-0.084
				c-0.084-0.056-0.173-0.146-0.266-0.267l-5.768-7.713v7.489C95.385,32.891,95.208,33.081,94.854,33.081z"/>
		</g>
	</g>
</g>
</svg>
