<?xml version="1.0" encoding="UTF-8"?>
<svg width="118px" height="50px" viewBox="0 0 118 50" version="1.1" xmlns="http://www.w3.org/2000/svg" xmlns:xlink="http://www.w3.org/1999/xlink">
    <title>Artboard</title>
    <g id="Artboard" stroke="none" stroke-width="1" fill="none" fill-rule="evenodd">
        <g id="amazonButton" transform="translate(12.000000, 10.000000)" fill-rule="nonzero">
            <g id="Group" transform="translate(0.000000, 7.741935)" fill="#FFFDFD" stroke="#FFFFFF">
                <path d="M1.06258065,10.6277419 C0.656129032,10.6277419 0.452903226,10.4254839 0.452903226,10.0190323 L0.452903226,1.68677419 C0.452903226,1.28032258 0.656129032,1.07709677 1.06258065,1.07709677 L4.27354839,1.07709677 C5.25774194,1.07709677 6.01935484,1.29677419 6.55645161,1.73419355 C7.09354839,2.17258065 7.36258065,2.78419355 7.36258065,3.57 C7.36258065,4.09354839 7.22709677,4.53967742 6.95612903,4.91129032 C6.68516129,5.28193548 6.31064516,5.55290323 5.8316129,5.72419355 C6.38225806,5.8683871 6.81387097,6.13548387 7.12548387,6.52354839 C7.43709677,6.9116129 7.59290323,7.40322581 7.59290323,8.00032258 C7.59290323,8.84903226 7.31709677,9.49935484 6.76645161,9.95129032 C6.21483871,10.4032258 5.43870968,10.6277419 4.43612903,10.6277419 L1.06258065,10.6277419 Z M1.53580645,5.34483871 L4.11,5.34483871 C5.54612903,5.34483871 6.26419355,4.78354839 6.26419355,3.66483871 C6.26419355,2.53645161 5.54612903,1.97129032 4.11,1.97129032 L1.53580645,1.97129032 L1.53580645,5.34483871 Z M1.53580645,9.73645161 L4.32677419,9.73645161 C5.7716129,9.73645161 6.49451613,9.15193548 6.49451613,7.98677419 C6.49451613,6.82258065 5.7716129,6.23903226 4.32677419,6.23903226 L1.53580645,6.23903226 L1.53580645,9.73645161 Z" id="Shape"></path>
                <path d="M15.246129,10.7506452 C13.9909677,10.7506452 13.0377419,10.4177419 12.3874194,9.75483871 C11.7370968,9.09193548 11.4119355,8.12129032 11.4119355,6.84870968 L11.4119355,1.55129032 C11.4119355,1.17096774 11.5967742,0.982258065 11.9674194,0.982258065 C12.3370968,0.982258065 12.5229032,1.17096774 12.5229032,1.55129032 L12.5229032,6.79451613 C12.5229032,8.7716129 13.4306452,9.75967742 15.246129,9.75967742 C17.0432258,9.75967742 17.9422581,8.7716129 17.9422581,6.79451613 L17.9422581,1.55129032 C17.9422581,1.17096774 18.1319355,0.982258065 18.5112903,0.982258065 C18.8732258,0.982258065 19.0532258,1.17096774 19.0532258,1.55129032 L19.0532258,6.84870968 C19.0532258,8.12129032 18.73,9.09096774 18.0845161,9.75483871 C17.4390323,10.4206452 16.4925806,10.7506452 15.246129,10.7506452 Z" id="Path"></path>
                <path d="M26.0706452,10.7235484 C25.7,10.7235484 25.5151613,10.5251613 25.5151613,10.1283871 L25.5151613,6.10548387 L22.3583871,1.77 C22.2316129,1.59870968 22.2074194,1.42548387 22.283871,1.2483871 C22.3612903,1.07225806 22.5122581,0.98516129 22.7377419,0.98516129 C22.9729032,0.98516129 23.176129,1.10709677 23.3474194,1.35096774 L26.0977419,5.13096774 L28.8345161,1.35096774 C29.0154839,1.10709677 29.2187097,0.98516129 29.4441935,0.98516129 C29.6609677,0.98516129 29.8051613,1.0683871 29.8777419,1.23580645 C29.9503226,1.40322581 29.9183871,1.58516129 29.7829032,1.78451613 L26.626129,6.13258065 L26.626129,10.1303226 C26.626129,10.5251613 26.4412903,10.7235484 26.0706452,10.7235484 Z" id="Path"></path>
                <path d="M41.5306452,10.7506452 C40.6451613,10.7506452 39.8758065,10.5483871 39.2206452,10.1477419 C38.5654839,9.74516129 38.0593548,9.17806452 37.7032258,8.44645161 C37.346129,7.71483871 37.1680645,6.84870968 37.1680645,5.84516129 C37.1680645,4.84354839 37.3441935,3.97548387 37.6964516,3.24387097 C38.0487097,2.51225806 38.5519355,1.94806452 39.2070968,1.55032258 C39.8622581,1.15258065 40.6364516,0.954193548 41.5306452,0.954193548 C42.4345161,0.954193548 43.2125806,1.15258065 43.8677419,1.55032258 C44.5229032,1.94806452 45.0280645,2.50935484 45.3851613,3.23709677 C45.7412903,3.96483871 45.9203226,4.83 45.9203226,5.83258065 C45.9203226,6.83419355 45.7393548,7.70516129 45.3783871,8.44064516 C45.0174194,9.17612903 44.5093548,9.74516129 43.8541935,10.1477419 C43.2,10.5483871 42.4248387,10.7506452 41.5306452,10.7506452 Z M41.5306452,9.7616129 C42.5516129,9.7616129 43.3422581,9.41903226 43.9016129,8.73290323 C44.4609677,8.04677419 44.7416129,7.08483871 44.7416129,5.84806452 C44.7416129,4.61129032 44.4609677,3.65032258 43.9016129,2.96806452 C43.3422581,2.28580645 42.5506452,1.94516129 41.5306452,1.94516129 C40.5280645,1.94516129 39.7470968,2.28580645 39.1867742,2.96806452 C38.6264516,3.65032258 38.3467742,4.61032258 38.3467742,5.84806452 C38.3467742,7.07806452 38.6274194,8.03806452 39.1867742,8.72806452 C39.746129,9.41806452 40.5280645,9.7616129 41.5306452,9.7616129 Z" id="Shape"></path>
                <path d="M50.3103226,10.7235484 C49.9580645,10.7235484 49.7819355,10.5396774 49.7819355,10.1690323 L49.7819355,1.55225806 C49.7819355,1.17193548 49.9445161,0.983225806 50.2696774,0.983225806 C50.4051613,0.983225806 50.5087097,1.00741935 50.5812903,1.05774194 C50.653871,1.10709677 50.7351613,1.19516129 50.8251613,1.32096774 L56.4070968,8.76 L56.4070968,1.52419355 C56.4070968,1.16322581 56.5832258,0.982258065 56.9354839,0.982258065 C57.2693548,0.982258065 57.4367742,1.16322581 57.4367742,1.52419355 L57.4367742,10.1816129 C57.4367742,10.5425806 57.2877419,10.7235484 56.9896774,10.7235484 C56.8541935,10.7235484 56.7458065,10.6983871 56.6645161,10.6422581 C56.5832258,10.5880645 56.4970968,10.5009677 56.4070968,10.383871 L50.8251613,2.91967742 L50.8251613,10.1670968 C50.8241935,10.5396774 50.6529032,10.7235484 50.3103226,10.7235484 Z" id="Path"></path>
            </g>
            <g id="Group-2" transform="translate(65.032258, 0.588024)">
                <path d="M24.5626491,23.8637332 C12.6516724,30.027859 5.25958908,24.870513 0.527682368,21.7380496 C0.234873923,21.5406321 -0.262798567,21.7842039 0.169000512,22.3235326 C1.745435,24.4020773 6.91174404,29.4119757 13.6552799,29.4119757 C20.4034562,29.4119757 24.4179992,25.4079955 24.9201991,24.7095267 C25.4190035,24.0169656 25.0666599,23.6349309 24.5625359,23.8637332 L24.5626491,23.8637332 Z M27.9639124,22.1291593 C27.6261874,21.6773719 25.9103148,21.5931528 24.8304552,21.7294257 C23.7489225,21.8617699 22.1255479,22.5408016 22.2666849,22.9485152 C22.3391058,23.101239 22.4869352,23.0327343 23.2299063,22.9641068 C23.9749091,22.8877449 26.0619684,22.6171635 26.4968521,23.2011724 C26.9337674,23.7892327 25.8312016,26.5905605 25.6298334,27.042348 C25.435277,27.4941354 25.7041663,27.6106426 26.0696168,27.3097374 C26.4300481,27.008955 27.0825529,26.2299899 27.5204242,25.1276531 C27.9553079,24.0193006 28.2204926,22.4731562 27.9637929,22.1291593 L27.9639124,22.1291593 Z" id="Shape" fill="#FF9900"></path>
                <path d="M15.0511698,0.379717606 C16.9228957,0.379717606 19.3679411,0.861846423 20.8447972,2.23478141 C22.7165231,3.92725789 22.5379594,6.18569728 22.5379594,8.64328404 L22.5379594,14.4492637 C22.5379594,15.9033819 23.0563788,16.6769848 23.6361264,17.440335 L23.8702128,17.746717 C23.9094112,17.7982191 23.9486112,17.8500729 23.9876776,17.9024769 C24.2364809,18.2378132 24.2906429,18.6414097 23.9768452,18.8928015 C23.1924649,19.5268036 21.7967948,20.705893 21.0287201,21.3661831 L21.0178877,21.35569 C20.7637252,21.575713 20.3958795,21.5915079 20.1092198,21.4447154 C18.8325921,20.4177202 18.6053396,19.9408932 17.9021453,18.9609512 C15.7924486,21.0465311 14.2994008,21.6700402 11.5622226,21.6700402 C8.32732376,21.6700402 5.80645161,19.7364441 5.80645161,15.8640605 C5.80645161,12.8406213 7.49972787,10.7812188 9.90680273,9.77520984 C11.9949487,8.88429322 14.9106906,8.72711812 17.1394299,8.48091763 L17.1394299,7.99878881 C17.1394299,7.11317396 17.2096695,6.06519269 16.6742065,5.30019288 C16.2035099,4.61372539 15.3055604,4.33074394 14.5157069,4.33074394 C13.0497971,4.33074394 11.7406722,5.05907324 11.4215153,6.56819719 C11.3565209,6.90364397 11.1023584,7.233789 10.7561775,7.24947337 L7.02355806,6.86178216 C6.70987436,6.793522 6.36369344,6.54732151 6.45023867,6.08087706 C7.31033178,1.70029771 11.3943773,0.379717606 15.0511698,0.379717606 Z M17.4190373,11.0248789 C14.5955143,11.0248789 11.6129032,11.5436814 11.6129032,14.4021657 C11.6129032,15.8501993 12.4862664,16.8313305 13.9859084,16.8313305 C15.0844726,16.8313305 16.0677154,16.2511825 16.6884366,15.3077335 C17.354939,14.3021436 17.4149329,13.3496509 17.4190823,12.2630136 Z" id="Shape" fill="#FFFFFF"></path>
            </g>
        </g>
    </g>
</svg>