<svg xmlns="http://www.w3.org/2000/svg" width="252" height="90" viewBox="0 0 252 90"><defs><linearGradient id="f27sa" x1="73.18" x2="70.79" y1="37.5" y2="37.75" gradientUnits="userSpaceOnUse"><stop offset="0" stop-color="#6b1f97"/><stop offset="1" stop-color="#ff5b4a"/></linearGradient><linearGradient id="f27sb" x1="54.42" x2="5.09" y1="33.21" y2="37.09" gradientUnits="userSpaceOnUse"><stop offset="0" stop-color="#6b1f97"/><stop offset="1" stop-color="#ff5b4a"/></linearGradient></defs><g><g><path fill="url(#f27sa)" d="M72.357 35.36c.826 0 1.403.948 1.29 2.143-.111 1.18-.877 2.143-1.704 2.143-.823 0-1.4-.962-1.287-2.143.112-1.195.877-2.143 1.7-2.143z"/></g><g><path fill="#ff5b4a" d="M96.561 54.577s-.349-4.924 0-6.238c0 0 .38-2.154.511.21 0 0 .205 2.688-.51 6.028zm5.569.3s.38-3.64.348-4.21c0 0 2.441 4.924 2.504 6.367 0 0 .52 2.467-2.198 3.04 0 0-1.575.1-2.268-1.184 0 0 1.378-2.115 1.308-3.27 0 0 .685-.301 1.012.02 0 0 .142-.552-.706-.763zm-1.918 3.44c-.36-2.125.987-2.746.987-2.746zM89.709 46.185c-.892.439-.962 5.424-.962 5.424-.31 5.566 1.442 7.792 1.442 7.792 2.305 2.426 5.205-.811 5.205-.811 1.752 3.468 4.23 1.311 4.23 1.311 2.336 2.54 6.77.663 7.159-2.867.758-3.44-4.156-8.154-3.543-10.539.79-.31 1.167-1.183 1.167-1.183.73-2.157-1.576-1.145-1.576-1.145-1.998 1.646-.902 5.255-.902 5.255.07 1.445-.41 5.455-.41 5.455-3.238.642-2.275 4.454-2.275 4.454-2.55 1.584-2.651-3.54-2.651-3.54 1.177-2.557 1.064-7.68 1.064-7.68-.031-2.668-1.578-1.515-1.578-1.515-1.975 2.705-1.7 8.523-.758 11.421-.892 1.314-2.07 1.553-2.07 1.553-4.024-.08-2.202-9.555-1.78-12.032.716-2.498-1.762-1.353-1.762-1.353z"/></g><g><path fill="url(#f27sb)" d="M13.793 66.429c3.594 0 6.683-.654 9.39-2.003a23.155 23.155 0 0 0 7.126-5.508c2.063-2.304 3.88-4.957 5.46-7.963 1.52-2.947 2.941-6.155 4.225-9.503 1.274-3.356 2.507-6.715 3.632-10.164 1.718-5.259 3.546-10.164 5.51-14.669 1.963-4.452 4.374-8.002 7.177-10.658 1.916 1.85 3.336 4.054 4.274 6.507a21.805 21.805 0 0 1 1.372 7.66c0 4.604-1.223 8.859-3.682 12.81-2.507 3.95-5.904 6.403-10.178 7.459-1.322 0-2.31-.1-2.843-.302a4.159 4.159 0 0 1-1.481-.754l-.642.554c.693.453 1.43.803 2.171 1.055.733.252 1.67.353 2.795.353 3.89-.353 7.178-1.509 9.882-3.46 2.704-1.95 4.77-4.404 6.19-7.358 1.433-2.947 2.112-6.054 2.112-9.31 0-3.047-.68-6.054-2.014-8.96-1.372-2.905-3.485-5.41-6.288-7.51 2.113-1.498 4.62-2.252 7.524-2.252l-.099-.543c-3.151 0-5.954.695-8.461 2.103C52.77 1.356 47.606 0 41.513 0c-7.807.152-14.254 1.508-19.309 4.162C17.14 6.805 13.36 10.164 10.9 14.166c-2.456 4.01-3.692 7.964-3.692 11.863 0 2.453.543 4.757 1.58 6.808 1.026 2.1 2.598 3.76 4.67 5.006 2.062 1.256 4.57 1.851 7.562 1.851 2.507 0 4.868-.543 6.98-1.699 2.113-1.158 3.781-2.906 5.065-5.31 1.274-2.352 1.916-5.4 1.916-9.157h-.594c0 4.252-1.125 7.66-3.336 10.313-2.262 2.656-5.214 3.953-8.798 3.953-2.408 0-4.423-.553-6.05-1.7-1.668-1.157-2.942-2.655-3.781-4.554-.84-1.9-1.274-4.002-1.274-6.355 0-2.653.581-5.459 1.817-8.313 1.173-2.857 2.99-5.452 5.497-7.905 2.46-2.401 5.608-4.362 9.44-5.912C31.69 1.557 36.213.803 41.465.803c5.656 0 10.276 1.398 13.761 4.255-4.076 3.006-7.521 7.31-10.316 12.869a172.765 172.765 0 0 0-7.719 17.865c-3.535 9.461-6.684 16.37-9.487 20.774-3.98 6.203-8.649 9.31-14.01 9.31-2.014 0-3.83-.353-5.45-1.108-1.618-.743-3-1.549-4.077-2.494-1.135-.903-1.974-1.657-2.507-2.311.631 0 1.124-.142 1.569-.494.445-.301.642-.754.642-1.405 0-.544-.197-.997-.543-1.35a1.912 1.912 0 0 0-1.373-.553c-.543 0-.988.201-1.332.554a1.869 1.869 0 0 0-.543 1.349c0 .45.197.903.543 1.356 1.481 2.152 3.693 4.002 6.635 5.55 1.817.954 4.028 1.459 6.535 1.459z"/></g><g><path fill="#ff5b4a" d="M55.297 53.357s-.405-4.83 2.255-7.61c0 0 1.433-1.008 1.709.654 0 0 .447 3.5-3.964 6.956zm27.317-4.191c-1.366-2.121.478-2.552.478-2.552 1.986 0 2.638 3.13 2.638 3.13-1.843.546-3.116-.578-3.116-.578zm-38.265 8.22c2.117-5.263 1.132-10.588 1.132-10.588l2.534-.074c1.437-.044.613 2.667.613 2.667l-1.51 5.756c-1.23 4.757 1.03 5.841 1.03 5.841 3.249.75 5.236-3.71 5.236-3.71 1.812 3.74 4.492 3.378 4.492 3.378 3.277-.14 4.51-3.163 4.51-3.163 2.118 3.418 4.584 3.097 4.584 3.097 3.361.184 4.9-3.931 4.9-3.931.886 3.43 2.393 3.492 2.393 3.492 2.738.546 3.799-2.84 3.799-2.84 2.881 5.219 6.68 2.165 6.68 2.165 2.67-2.315 1.987-9.12 1.987-9.12 2.015-1.254 1.976-2.153 1.976-2.153-1.191 1.295-2.19 1.467-2.19 1.467-.714-4.351-3.452-3.849-3.452-3.849-2.222.645-1.682 2.81-1.682 2.81.602 2.817 4.493 1.98 4.493 1.98.651 2.52.06 9.551-3.26 8.821-4.502-1.596-3.514-12.955 1.028-14.876-3.074.398-4.623 3.312-4.623 3.312-1.945 2.883-1.265 8.65-1.265 8.65-.232.868-1.16 2.014-1.16 2.014-2.23 1.8-2.81-1.113-2.81-1.113-.55-7.6.07-10.846.07-10.846.41-1.833-.376-1.8-.376-1.8-1.681-.324-1.812 2.058-1.812 2.058l-.073 9.002c-.925 3.02-3.014 3.6-3.014 3.6-3.83.43-4.482-3.74-4.482-3.74-.886-9.872 3.118-10.558 3.118-10.558 2.188-.181 1.71 2.519 1.71 2.519-1.436-.107-1.884 1.084-1.884 1.084-.712 2.057.998 2.013.998 2.013 2.394-1.146 1.71-4.244 1.71-4.244-1.334-3.858-4.724-1.188-4.724-1.188-4.654 4.137-2.915 11.595-2.915 11.595-1.507 2.776-3.694 2.625-3.694 2.625-3.494-.502-3.252-5.506-3.252-5.506 3.8-1.91 4.798-6.516 4.798-6.516.683-3.784-2.433-2.744-2.433-2.744-4.45 2.593-4.422 8.895-4.422 8.895-.967-.085-1.384-.697-1.384-.697-.856-.428-.702.535-.702.535.6.889 2.026 1.084 2.026 1.084 0 .579.133 2.014.133 2.014-2.292 4.181-3.595 2.924-3.595 2.924-1.742-.974.651-8.969.651-8.969 1.539-5.004-1.335-4.61-1.335-4.61h-3.697c-1.027-3.352-2.292-1.52-2.292-1.52-.722 2.454 1.987 2.42 1.987 2.42.957 6.155-1.233 10.548-1.233 10.548z"/></g><g><path fill="#ff5b4a" d="M168.163 47.3c-1.14-1.933.674-2.277.674-2.277 1.98.074 2.471 3.319 2.471 3.319-2.016.58-3.145-1.042-3.145-1.042zm.906-4.44s-4.74.792-5.58 8.568c-.647 7.495 6.856 10.985 8.603 2.771 0 0 .511-2.333.096-5.502 0 0 1.89-.998 1.94-2.056 0 0-1.275 1.349-2.01 1.37 0 0-.548-3.514-2.856-3.802-3.464-.537-2.78 6.114 2.212 4.883 0 0 .857 4.787-1.122 7.731-4.73 5.41-7.201-10.226-1.283-13.963z"/></g><g><path fill="#ff5b4a" d="M147.667 32.301s-1.556-6.774-.63-9.6c0 0 .796-1.712 1.192.596 0 0 .333 3.451-.562 9.004zm1.216 27.382s.316 3.754-.038 4.548c0 0-.683 1.328-.612-1.497 0 0 .017-1.016.65-3.05zm-27.39-19.746c-5.062.333-6.028 6.402-6.028 6.402-1.122 8.937 3.378 13.149 3.378 13.149 5.96 5.651 11.778.588 11.778.588 6.756-4.928 4.903-16.297 4.903-16.297-.993-10.704-9.138-11.888-9.138-11.888-9.461-1.389-13.164 6.17-13.164 6.17-4.974 8.473-2.592 18.006-2.592 18.006 4.245 14.723 14.299 14.39 14.299 14.39 9.138-.067 13.708-7.683 13.708-7.683 5.425-7.168 8.271-20.707 8.271-20.707.65 4.732 1.724 15.74 1.724 15.74-1.989 5.718-.897 7.655-.897 7.655s.955 1.612 2.284-.626c1.32-2.23.325-11.037.325-11.037 2.718-8.544 5.17-13.99 5.17-13.99 6.479-15.25 10.253-17.42 10.253-17.42-1.46 2.697-3.832 10.783-3.832 10.783-4.127 12.942-7.583 42.125 2.846 52.762 8.332 8.406 17.666 1.181 17.666 1.181 6.953-6.051 6.618-12.944 6.618-12.944.403-13.149-9.2-10.118-9.2-10.118-7.877 2.563-8.172 14.713-8.172 14.713.03 2.503.66 1.447.66 1.447.394-12.414 5.958-14.516 5.958-14.516 6.027-3.491 8.538 2.826 8.538 2.826 3.771 11.494-4.964 17.674-4.964 17.674-10.92 7.753-17.802-5.386-17.802-5.386-7.15-13.012-2.514-36.672-2.514-36.672 2.178-17.146 7.278-23.715 7.278-23.715-4.232-1.056-10.388 11.36-10.388 11.36-3.714 6.509-8.41 20.246-8.41 20.246-.522-4.497-2.727-17.374-1.654-20.041.66-2.964.464-7.694.464-7.694-.07-4.79-2.314-2.23-2.314-2.23-2.314 3.354-.731 10.51-.731 10.51 1.487 9.67-2.155 19.6-6.814 27.99-7.356 12.092-16.61 8.28-16.61 8.28-9.337-3.148-10.93-14.978-10.93-14.978-.79-9.658 2.087-13.765 2.087-13.765 3.348-6.734 9.728-7.097 9.728-7.097 6.353-.39 9.138 4.995 9.138 4.995 2.65 3.912 2.186 10.842 2.186 10.842-.57 6.667-3.643 9.59-3.643 9.59-3.842 4.37-8.636 2.435-8.636 2.435-4.639-2.503-5.693-7.235-5.693-7.235-1.358-5.484.099-8.935.099-8.935 1.883-4.497 4.767-4.204 4.767-4.204 4.066.295 3.11 5.65 3.11 5.65 1.657-6.304-3.11-6.206-3.11-6.206z"/></g><g><path fill="#ff5b4a" d="M193.855 51.756c-.265-7.197 5.983-9.38 3.112-3.187zm23.967 3.683c-.209-1.924 1.162-2.435 1.162-2.435zm4.104-3.292c2.506 4.196-2.138 6.145-3.692 3.694 1.1-1.014 1.23-2.727 1.23-2.727.344-.493 1.127-.12 1.127-.12.02-.63-.793-.602-.793-.602.367-1.622.228-3.922.228-3.922zm-47.382-7.233s.297 8.765-.367 11.464c0 0-.532 1.195 1.991 1.013 0 0 .604-8.582 3.662-11.582 0 0 1.802-1.78.862 3.182 0 0-.93 5.208-.794 6.985 0 0-.337 1.478 2.06 1.048 0 0 .872-8.344 3.73-11.526 0 0 1.863-1.779 1.06 2.755 0 0-1.592 6.747.398 8.708 0 0 2.929 2.326 4.86-1.905 1.631 3.402 7.204 3.976 8.818.126 0 0-.773 2.454 1.692 1.807 0 0-.337-5.453 3.257-11.218 0 0 2.03-2.143 1.662 1.751 0 0-.958 5.391-.396 8.4 0 0 1.199 2.636 3.624 1.313 0 0 1.533-.83 2.197-2.545 0 0 .603 2.727 2.802 2.883 0 0 1.128 0 1.762-.675 0 0 1.563 1.842 4.85.428 5.394-3.201-2.268-10.077-1.465-12.622 0 0 1.949-.803 1.267-2.015 0 0-.902-1.396-2.415.757 0 0-.841.922-.05 4.132 0 0-.031 4.077-.297 4.877 0 0-2.96.056-2.296 3.86 0 0-2.06 1.96-2.693-2.363 0 0-.436-6 .83-11.947 4-.41 35.329-6.282 35.864-1.907 0 0 .8 2.272-3.594 3.932 0 0 4.653-.374 4.653-4.296 0 0 .266-3.803-6.515-3.245-10.204.91-19.826 3.474-30.07 4.412 0 0 .395-3.22.83-4.503.427-1.287-.998-1.014-.998-1.014s-.83-.09-.97 1.469c0 0-.793 3.675-.892 4.506 0 0-11.61 1.074-10.313-1.87 0 0 .296-1.807 4.82-2.91 0 0-4.987.064-5.72 3.402 0 0-1.13 3.154 11.015 2.298 0 0-1.097 5.39-.633 11.582 0 0-1.366 3.621-3.266 2.727-1.663-.192.367-8.526.337-9.775 0 0 .129-3.029-3.426-2.08 0 0-1.86.153-3.631 6.985-.249-1.896 2.098-9.292-1.693-7.35 0 0 .565 5.078 0 9.44-2.227 5.726-7.888 2.927-7.186-1.57 0 0 3.93-1.716 4.662-5.664 0 0 .395-2.362-1.801-2.243-3.525.163-4.85 5.033-4.891 7.816 0 0-1.366-.137-1.979-.885 0 0 .03 1.303 2 1.623.711 2.89-3.713 6.075-3.832 2.024 0 0 .198-2.67.97-6.53 1.025-5.297-4.272-6.248-6.282 2.332.367-1.818 1.165-6.845-1.367-6.471 0 0-2.694-.31-4.891 7.842.02-1.987 2.129-10.049-1.812-7.168z"/></g><g><path fill="#ff5b4a" d="M72.357 35.36c.826 0 1.403.948 1.29 2.143-.111 1.18-.877 2.143-1.704 2.143-.823 0-1.4-.962-1.287-2.143.112-1.195.877-2.143 1.7-2.143z"/></g><g><path fill="#ff5b4a" d="M96.561 54.577s-.349-4.924 0-6.238c0 0 .38-2.154.511.21 0 0 .205 2.688-.51 6.028zm5.569.3s.38-3.64.348-4.21c0 0 2.441 4.924 2.504 6.367 0 0 .52 2.467-2.198 3.04 0 0-1.575.1-2.268-1.184 0 0 1.378-2.115 1.308-3.27 0 0 .685-.301 1.012.02 0 0 .142-.552-.706-.763zm-1.918 3.44c-.36-2.125.987-2.746.987-2.746zM89.709 46.185c-.892.439-.962 5.424-.962 5.424-.31 5.566 1.442 7.792 1.442 7.792 2.305 2.426 5.205-.811 5.205-.811 1.752 3.468 4.23 1.311 4.23 1.311 2.336 2.54 6.77.663 7.159-2.867.758-3.44-4.156-8.154-3.543-10.539.79-.31 1.167-1.183 1.167-1.183.73-2.157-1.576-1.145-1.576-1.145-1.998 1.646-.902 5.255-.902 5.255.07 1.445-.41 5.455-.41 5.455-3.238.642-2.275 4.454-2.275 4.454-2.55 1.584-2.651-3.54-2.651-3.54 1.177-2.557 1.064-7.68 1.064-7.68-.031-2.668-1.578-1.515-1.578-1.515-1.975 2.705-1.7 8.523-.758 11.421-.892 1.314-2.07 1.553-2.07 1.553-4.024-.08-2.202-9.555-1.78-12.032.716-2.498-1.762-1.353-1.762-1.353z"/></g><g><path fill="#ff5b4a" d="M13.793 66.429c3.594 0 6.683-.654 9.39-2.003a23.155 23.155 0 0 0 7.126-5.508c2.063-2.304 3.88-4.957 5.46-7.963 1.52-2.947 2.941-6.155 4.225-9.503 1.274-3.356 2.507-6.715 3.632-10.164 1.718-5.259 3.546-10.164 5.51-14.669 1.963-4.452 4.374-8.002 7.177-10.658 1.916 1.85 3.336 4.054 4.274 6.507a21.805 21.805 0 0 1 1.372 7.66c0 4.604-1.223 8.859-3.682 12.81-2.507 3.95-5.904 6.403-10.178 7.459-1.322 0-2.31-.1-2.843-.302a4.159 4.159 0 0 1-1.481-.754l-.642.554c.693.453 1.43.803 2.171 1.055.733.252 1.67.353 2.795.353 3.89-.353 7.178-1.509 9.882-3.46 2.704-1.95 4.77-4.404 6.19-7.358 1.433-2.947 2.112-6.054 2.112-9.31 0-3.047-.68-6.054-2.014-8.96-1.372-2.905-3.485-5.41-6.288-7.51 2.113-1.498 4.62-2.252 7.524-2.252l-.099-.543c-3.151 0-5.954.695-8.461 2.103C52.77 1.356 47.606 0 41.513 0c-7.807.152-14.254 1.508-19.309 4.162C17.14 6.805 13.36 10.164 10.9 14.166c-2.456 4.01-3.692 7.964-3.692 11.863 0 2.453.543 4.757 1.58 6.808 1.026 2.1 2.598 3.76 4.67 5.006 2.062 1.256 4.57 1.851 7.562 1.851 2.507 0 4.868-.543 6.98-1.699 2.113-1.158 3.781-2.906 5.065-5.31 1.274-2.352 1.916-5.4 1.916-9.157h-.594c0 4.252-1.125 7.66-3.336 10.313-2.262 2.656-5.214 3.953-8.798 3.953-2.408 0-4.423-.553-6.05-1.7-1.668-1.157-2.942-2.655-3.781-4.554-.84-1.9-1.274-4.002-1.274-6.355 0-2.653.581-5.459 1.817-8.313 1.173-2.857 2.99-5.452 5.497-7.905 2.46-2.401 5.608-4.362 9.44-5.912C31.69 1.557 36.213.803 41.465.803c5.656 0 10.276 1.398 13.761 4.255-4.076 3.006-7.521 7.31-10.316 12.869a172.765 172.765 0 0 0-7.719 17.865c-3.535 9.461-6.684 16.37-9.487 20.774-3.98 6.203-8.649 9.31-14.01 9.31-2.014 0-3.83-.353-5.45-1.108-1.618-.743-3-1.549-4.077-2.494-1.135-.903-1.974-1.657-2.507-2.311.631 0 1.124-.142 1.569-.494.445-.301.642-.754.642-1.405 0-.544-.197-.997-.543-1.35a1.912 1.912 0 0 0-1.373-.553c-.543 0-.988.201-1.332.554a1.869 1.869 0 0 0-.543 1.349c0 .45.197.903.543 1.356 1.481 2.152 3.693 4.002 6.635 5.55 1.817.954 4.028 1.459 6.535 1.459z"/></g><g><path fill="#ff5b4a" d="M55.297 53.357s-.405-4.83 2.255-7.61c0 0 1.433-1.008 1.709.654 0 0 .447 3.5-3.964 6.956zm27.317-4.191c-1.366-2.121.478-2.552.478-2.552 1.986 0 2.638 3.13 2.638 3.13-1.843.546-3.116-.578-3.116-.578zm-38.265 8.22c2.117-5.263 1.132-10.588 1.132-10.588l2.534-.074c1.437-.044.613 2.667.613 2.667l-1.51 5.756c-1.23 4.757 1.03 5.841 1.03 5.841 3.249.75 5.236-3.71 5.236-3.71 1.812 3.74 4.492 3.378 4.492 3.378 3.277-.14 4.51-3.163 4.51-3.163 2.118 3.418 4.584 3.097 4.584 3.097 3.361.184 4.9-3.931 4.9-3.931.886 3.43 2.393 3.492 2.393 3.492 2.738.546 3.799-2.84 3.799-2.84 2.881 5.219 6.68 2.165 6.68 2.165 2.67-2.315 1.987-9.12 1.987-9.12 2.015-1.254 1.976-2.153 1.976-2.153-1.191 1.295-2.19 1.467-2.19 1.467-.714-4.351-3.452-3.849-3.452-3.849-2.222.645-1.682 2.81-1.682 2.81.602 2.817 4.493 1.98 4.493 1.98.651 2.52.06 9.551-3.26 8.821-4.502-1.596-3.514-12.955 1.028-14.876-3.074.398-4.623 3.312-4.623 3.312-1.945 2.883-1.265 8.65-1.265 8.65-.232.868-1.16 2.014-1.16 2.014-2.23 1.8-2.81-1.113-2.81-1.113-.55-7.6.07-10.846.07-10.846.41-1.833-.376-1.8-.376-1.8-1.681-.324-1.812 2.058-1.812 2.058l-.073 9.002c-.925 3.02-3.014 3.6-3.014 3.6-3.83.43-4.482-3.74-4.482-3.74-.886-9.872 3.118-10.558 3.118-10.558 2.188-.181 1.71 2.519 1.71 2.519-1.436-.107-1.884 1.084-1.884 1.084-.712 2.057.998 2.013.998 2.013 2.394-1.146 1.71-4.244 1.71-4.244-1.334-3.858-4.724-1.188-4.724-1.188-4.654 4.137-2.915 11.595-2.915 11.595-1.507 2.776-3.694 2.625-3.694 2.625-3.494-.502-3.252-5.506-3.252-5.506 3.8-1.91 4.798-6.516 4.798-6.516.683-3.784-2.433-2.744-2.433-2.744-4.45 2.593-4.422 8.895-4.422 8.895-.967-.085-1.384-.697-1.384-.697-.856-.428-.702.535-.702.535.6.889 2.026 1.084 2.026 1.084 0 .579.133 2.014.133 2.014-2.292 4.181-3.595 2.924-3.595 2.924-1.742-.974.651-8.969.651-8.969 1.539-5.004-1.335-4.61-1.335-4.61h-3.697c-1.027-3.352-2.292-1.52-2.292-1.52-.722 2.454 1.987 2.42 1.987 2.42.957 6.155-1.233 10.548-1.233 10.548z"/></g><g><path fill="#ff5b4a" d="M168.163 47.3c-1.14-1.933.674-2.277.674-2.277 1.98.074 2.471 3.319 2.471 3.319-2.016.58-3.145-1.042-3.145-1.042zm.906-4.44s-4.74.792-5.58 8.568c-.647 7.495 6.856 10.985 8.603 2.771 0 0 .511-2.333.096-5.502 0 0 1.89-.998 1.94-2.056 0 0-1.275 1.349-2.01 1.37 0 0-.548-3.514-2.856-3.802-3.464-.537-2.78 6.114 2.212 4.883 0 0 .857 4.787-1.122 7.731-4.73 5.41-7.201-10.226-1.283-13.963z"/></g><g><path fill="#ff5b4a" d="M147.667 32.301s-1.556-6.774-.63-9.6c0 0 .796-1.712 1.192.596 0 0 .333 3.451-.562 9.004zm1.216 27.382s.316 3.754-.038 4.548c0 0-.683 1.328-.612-1.497 0 0 .017-1.016.65-3.05zm-27.39-19.746c-5.062.333-6.028 6.402-6.028 6.402-1.122 8.937 3.378 13.149 3.378 13.149 5.96 5.651 11.778.588 11.778.588 6.756-4.928 4.903-16.297 4.903-16.297-.993-10.704-9.138-11.888-9.138-11.888-9.461-1.389-13.164 6.17-13.164 6.17-4.974 8.473-2.592 18.006-2.592 18.006 4.245 14.723 14.299 14.39 14.299 14.39 9.138-.067 13.708-7.683 13.708-7.683 5.425-7.168 8.271-20.707 8.271-20.707.65 4.732 1.724 15.74 1.724 15.74-1.989 5.718-.897 7.655-.897 7.655s.955 1.612 2.284-.626c1.32-2.23.325-11.037.325-11.037 2.718-8.544 5.17-13.99 5.17-13.99 6.479-15.25 10.253-17.42 10.253-17.42-1.46 2.697-3.832 10.783-3.832 10.783-4.127 12.942-7.583 42.125 2.846 52.762 8.332 8.406 17.666 1.181 17.666 1.181 6.953-6.051 6.618-12.944 6.618-12.944.403-13.149-9.2-10.118-9.2-10.118-7.877 2.563-8.172 14.713-8.172 14.713.03 2.503.66 1.447.66 1.447.394-12.414 5.958-14.516 5.958-14.516 6.027-3.491 8.538 2.826 8.538 2.826 3.771 11.494-4.964 17.674-4.964 17.674-10.92 7.753-17.802-5.386-17.802-5.386-7.15-13.012-2.514-36.672-2.514-36.672 2.178-17.146 7.278-23.715 7.278-23.715-4.232-1.056-10.388 11.36-10.388 11.36-3.714 6.509-8.41 20.246-8.41 20.246-.522-4.497-2.727-17.374-1.654-20.041.66-2.964.464-7.694.464-7.694-.07-4.79-2.314-2.23-2.314-2.23-2.314 3.354-.731 10.51-.731 10.51 1.487 9.67-2.155 19.6-6.814 27.99-7.356 12.092-16.61 8.28-16.61 8.28-9.337-3.148-10.93-14.978-10.93-14.978-.79-9.658 2.087-13.765 2.087-13.765 3.348-6.734 9.728-7.097 9.728-7.097 6.353-.39 9.138 4.995 9.138 4.995 2.65 3.912 2.186 10.842 2.186 10.842-.57 6.667-3.643 9.59-3.643 9.59-3.842 4.37-8.636 2.435-8.636 2.435-4.639-2.503-5.693-7.235-5.693-7.235-1.358-5.484.099-8.935.099-8.935 1.883-4.497 4.767-4.204 4.767-4.204 4.066.295 3.11 5.65 3.11 5.65 1.657-6.304-3.11-6.206-3.11-6.206z"/></g><g><path fill="#ff5b4a" d="M193.855 51.756c-.265-7.197 5.983-9.38 3.112-3.187zm23.967 3.683c-.209-1.924 1.162-2.435 1.162-2.435zm4.104-3.292c2.506 4.196-2.138 6.145-3.692 3.694 1.1-1.014 1.23-2.727 1.23-2.727.344-.493 1.127-.12 1.127-.12.02-.63-.793-.602-.793-.602.367-1.622.228-3.922.228-3.922zm-47.382-7.233s.297 8.765-.367 11.464c0 0-.532 1.195 1.991 1.013 0 0 .604-8.582 3.662-11.582 0 0 1.802-1.78.862 3.182 0 0-.93 5.208-.794 6.985 0 0-.337 1.478 2.06 1.048 0 0 .872-8.344 3.73-11.526 0 0 1.863-1.779 1.06 2.755 0 0-1.592 6.747.398 8.708 0 0 2.929 2.326 4.86-1.905 1.631 3.402 7.204 3.976 8.818.126 0 0-.773 2.454 1.692 1.807 0 0-.337-5.453 3.257-11.218 0 0 2.03-2.143 1.662 1.751 0 0-.958 5.391-.396 8.4 0 0 1.199 2.636 3.624 1.313 0 0 1.533-.83 2.197-2.545 0 0 .603 2.727 2.802 2.883 0 0 1.128 0 1.762-.675 0 0 1.563 1.842 4.85.428 5.394-3.201-2.268-10.077-1.465-12.622 0 0 1.949-.803 1.267-2.015 0 0-.902-1.396-2.415.757 0 0-.841.922-.05 4.132 0 0-.031 4.077-.297 4.877 0 0-2.96.056-2.296 3.86 0 0-2.06 1.96-2.693-2.363 0 0-.436-6 .83-11.947 4-.41 35.329-6.282 35.864-1.907 0 0 .8 2.272-3.594 3.932 0 0 4.653-.374 4.653-4.296 0 0 .266-3.803-6.515-3.245-10.204.91-19.826 3.474-30.07 4.412 0 0 .395-3.22.83-4.503.427-1.287-.998-1.014-.998-1.014s-.83-.09-.97 1.469c0 0-.793 3.675-.892 4.506 0 0-11.61 1.074-10.313-1.87 0 0 .296-1.807 4.82-2.91 0 0-4.987.064-5.72 3.402 0 0-1.13 3.154 11.015 2.298 0 0-1.097 5.39-.633 11.582 0 0-1.366 3.621-3.266 2.727-1.663-.192.367-8.526.337-9.775 0 0 .129-3.029-3.426-2.08 0 0-1.86.153-3.631 6.985-.249-1.896 2.098-9.292-1.693-7.35 0 0 .565 5.078 0 9.44-2.227 5.726-7.888 2.927-7.186-1.57 0 0 3.93-1.716 4.662-5.664 0 0 .395-2.362-1.801-2.243-3.525.163-4.85 5.033-4.891 7.816 0 0-1.366-.137-1.979-.885 0 0 .03 1.303 2 1.623.711 2.89-3.713 6.075-3.832 2.024 0 0 .198-2.67.97-6.53 1.025-5.297-4.272-6.248-6.282 2.332.367-1.818 1.165-6.845-1.367-6.471 0 0-2.694-.31-4.891 7.842.02-1.987 2.129-10.049-1.812-7.168z"/></g></g></svg>